<?xml version="1.0" encoding="UTF-8" standalone="no"?>
<svg width="533px" height="550px" viewBox="0 0 533 550" version="1.1" xmlns="http://www.w3.org/2000/svg" xmlns:xlink="http://www.w3.org/1999/xlink" xmlns:sketch="http://www.bohemiancoding.com/sketch/ns">
    <!-- Generator: Sketch 3.2 (9961) - http://www.bohemiancoding.com/sketch -->
    <title>Slice 1</title>
    <desc>Created with Sketch.</desc>
    <defs></defs>
    <g id="Page-1" stroke="none" stroke-width="1" fill="none" fill-rule="evenodd" sketch:type="MSPage">
        <g id="Bottom" sketch:type="MSLayerGroup" transform="translate(175.000000, 393.000000)" fill="#88297C">
            <circle id="Oval-3" sketch:type="MSShapeGroup" cx="64.5" cy="5.5" r="5.5"></circle>
            <circle id="Oval-4" sketch:type="MSShapeGroup" cx="62.5" cy="21.5" r="5.5"></circle>
            <circle id="Oval-5" sketch:type="MSShapeGroup" cx="60.5" cy="37.5" r="5.5"></circle>
            <path d="M54.5,157 C84.5995189,157 109,132.599519 109,102.5 C109,72.4004811 84.5995189,48 54.5,48 C24.4004811,48 0,72.4004811 0,102.5 C0,132.599519 24.4004811,157 54.5,157 Z M54.5,143 C76.8675324,143 95,124.867532 95,102.5 C95,80.1324676 76.8675324,62 54.5,62 C32.1324676,62 14,80.1324676 14,102.5 C14,124.867532 32.1324676,143 54.5,143 Z" id="End-Oval" sketch:type="MSShapeGroup"></path>
        </g>
        <g id="Top" sketch:type="MSLayerGroup" transform="translate(324.345492, 154.975528) rotate(-162.000000) translate(-324.345492, -154.975528) translate(278.845492, 88.975528)" fill="#88297C">
            <circle id="Oval-3" sketch:type="MSShapeGroup" cx="57.5" cy="5.5" r="4.5"></circle>
            <circle id="Oval-4" sketch:type="MSShapeGroup" cx="55.5" cy="18.5" r="4.5"></circle>
            <circle id="Oval-5" sketch:type="MSShapeGroup" cx="53.809017" cy="32.4510565" r="4.5"></circle>
            <path d="M45.1957739,131.236068 C70.0485877,131.236068 90.1957739,111.088882 90.1957739,86.236068 C90.1957739,61.3832542 70.0485877,41.236068 45.1957739,41.236068 C20.3429602,41.236068 0.195773935,61.3832542 0.195773935,86.236068 C0.195773935,111.088882 20.3429602,131.236068 45.1957739,131.236068 Z M45.6957739,120.236068 C64.1973131,120.236068 79.1957739,105.237607 79.1957739,86.736068 C79.1957739,68.2345289 64.1973131,53.236068 45.6957739,53.236068 C27.1942348,53.236068 12.1957739,68.2345289 12.1957739,86.736068 C12.1957739,105.237607 27.1942348,120.236068 45.6957739,120.236068 Z" id="End-Oval" sketch:type="MSShapeGroup"></path>
        </g>
        <g id="Bottom-Left" sketch:type="MSLayerGroup" transform="translate(0.000000, 332.000000)" fill="#88297C">
            <circle id="Oval-3" sketch:type="MSShapeGroup" cx="120.5" cy="19.5" r="4.5"></circle>
            <circle id="Oval-6" sketch:type="MSShapeGroup" cx="132.5" cy="14.5" r="4.5"></circle>
            <circle id="Oval-7" sketch:type="MSShapeGroup" cx="145.5" cy="9.5" r="4.5"></circle>
            <circle id="Oval-8" sketch:type="MSShapeGroup" cx="157.5" cy="4.5" r="4.5"></circle>
            <path d="M107.5,30 C109.985281,30 112,27.9852814 112,25.5 C112,23.0147186 109.985281,21 107.5,21 C105.014719,21 103,23.0147186 103,25.5 C103,27.9852814 105.014719,30 107.5,30 Z" id="Oval-4" sketch:type="MSShapeGroup"></path>
            <circle id="Oval-5" sketch:type="MSShapeGroup" cx="95.5" cy="30.5" r="4.5"></circle>
            <path d="M45.5,97 C70.6289561,97 91,76.6289561 91,51.5 C91,26.3710439 70.6289561,6 45.5,6 C20.3710439,6 0,26.3710439 0,51.5 C0,76.6289561 20.3710439,97 45.5,97 Z M45.5,85.3119266 C64.1738114,85.3119266 79.3119266,70.1738114 79.3119266,51.5 C79.3119266,32.8261886 64.1738114,17.6880734 45.5,17.6880734 C26.8261886,17.6880734 11.6880734,32.8261886 11.6880734,51.5 C11.6880734,70.1738114 26.8261886,85.3119266 45.5,85.3119266 Z" id="End-Oval" sketch:type="MSShapeGroup"></path>
        </g>
        <g id="Left" sketch:type="MSLayerGroup" transform="translate(48.000000, 206.000000)" fill="#88297C">
            <circle id="Oval-6" sketch:type="MSShapeGroup" cx="98" cy="57" r="4"></circle>
            <circle id="Oval-7" sketch:type="MSShapeGroup" cx="108" cy="61" r="4"></circle>
            <path d="M88,58 C90.209139,58 92,56.209139 92,54 C92,51.790861 90.209139,50 88,50 C85.790861,50 84,51.790861 84,54 C84,56.209139 85.790861,58 88,58 Z" id="Oval-4" sketch:type="MSShapeGroup"></path>
            <circle id="Oval-5" sketch:type="MSShapeGroup" cx="78" cy="51" r="4"></circle>
            <path d="M37,74 C57.4345357,74 74,57.4345357 74,37 C74,16.5654643 57.4345357,0 37,0 C16.5654643,0 0,16.5654643 0,37 C0,57.4345357 16.5654643,74 37,74 Z M37,64.4954128 C52.1852972,64.4954128 64.4954128,52.1852972 64.4954128,37 C64.4954128,21.8147028 52.1852972,9.50458716 37,9.50458716 C21.8147028,9.50458716 9.50458716,21.8147028 9.50458716,37 C9.50458716,52.1852972 21.8147028,64.4954128 37,64.4954128 Z" id="End-Oval" sketch:type="MSShapeGroup"></path>
        </g>
        <g id="Bottom-Right" sketch:type="MSLayerGroup" transform="translate(432.286788, 251.909576) rotate(145.000000) translate(-432.286788, -251.909576) translate(347.286788, 195.909576)" fill="#88297C">
            <circle id="Oval-6" sketch:type="MSShapeGroup" cx="148.49025" cy="86.9794072" r="5.95314065"></circle>
            <circle id="Oval-7" sketch:type="MSShapeGroup" cx="163.946678" cy="92.1133958" r="5.95314065"></circle>
            <path d="M133.361823,87.0749639 C136.649652,87.0749639 139.314963,84.409652 139.314963,81.1218232 C139.314963,77.8339944 136.649652,75.1686826 133.361823,75.1686826 C130.073994,75.1686826 127.408682,77.8339944 127.408682,81.1218232 C127.408682,84.409652 130.073994,87.0749639 133.361823,87.0749639 Z" id="Oval-4" sketch:type="MSShapeGroup"></path>
            <circle id="Oval-5" sketch:type="MSShapeGroup" cx="118.478971" cy="76.6569677" r="5.95314065"></circle>
            <path d="M56.066551,111.133102 C86.4789674,111.133102 111.133102,86.4789674 111.133102,56.066551 C111.133102,25.6541347 86.4789674,1 56.066551,1 C25.6541347,1 1,25.6541347 1,56.066551 C1,86.4789674 25.6541347,111.133102 56.066551,111.133102 Z M56.066551,96.987566 C78.6666036,96.987566 96.987566,78.6666036 96.987566,56.066551 C96.987566,33.4664985 78.6666036,15.145536 56.066551,15.145536 C33.4664985,15.145536 15.145536,33.4664985 15.145536,56.066551 C15.145536,78.6666036 33.4664985,96.987566 56.066551,96.987566 Z" id="End-Oval" sketch:type="MSShapeGroup"></path>
        </g>
        <g id="Right" sketch:type="MSLayerGroup" transform="translate(375.517037, 387.870590) rotate(195.000000) translate(-375.517037, -387.870590) translate(319.017037, 350.870590)" fill="#88297C">
            <ellipse id="Oval-6" sketch:type="MSShapeGroup" cx="98.5997598" cy="57.4787072" rx="3.97977655" ry="3.97977655"></ellipse>
            <ellipse id="Oval-7" sketch:type="MSShapeGroup" cx="108.932647" cy="60.9108666" rx="3.97977655" ry="3.97977655"></ellipse>
            <path d="M88.486147,57.5425885 C90.6841169,57.5425885 92.4659235,55.7607818 92.4659235,53.5628119 C92.4659235,51.364842 90.6841169,49.5830354 88.486147,49.5830354 C86.2881771,49.5830354 84.5063704,51.364842 84.5063704,53.5628119 C84.5063704,55.7607818 86.2881771,57.5425885 88.486147,57.5425885 Z" id="Oval-4" sketch:type="MSShapeGroup"></path>
            <ellipse id="Oval-5" sketch:type="MSShapeGroup" cx="78.5367056" cy="50.5779795" rx="3.97977655" ry="3.97977655"></ellipse>
            <path d="M36.8129331,73.6258662 C57.1441546,73.6258662 73.6258662,57.1441546 73.6258662,36.8129331 C73.6258662,16.4817116 57.1441546,5.96855898e-13 36.8129331,5.96855898e-13 C16.4817116,5.96855898e-13 2.27373675e-13,16.4817116 2.27373675e-13,36.8129331 C2.27373675e-13,57.1441546 16.4817116,73.6258662 36.8129331,73.6258662 Z M36.8129331,64.1693329 C51.9214555,64.1693329 64.1693329,51.9214555 64.1693329,36.8129331 C64.1693329,21.7044107 51.9214555,9.45653327 36.8129331,9.45653327 C21.7044107,9.45653327 9.45653327,21.7044107 9.45653327,36.8129331 C9.45653327,51.9214555 21.7044107,64.1693329 36.8129331,64.1693329 Z" id="End-Oval" sketch:type="MSShapeGroup"></path>
        </g>
        <g id="Top-Left" sketch:type="MSLayerGroup" transform="translate(162.000000, 113.500000) rotate(42.000000) translate(-162.000000, -113.500000) translate(64.000000, 49.000000)" fill="#88297C">
            <circle id="Oval-6" sketch:type="MSShapeGroup" cx="170.338261" cy="101.48629" r="7"></circle>
            <circle id="Oval-7" sketch:type="MSShapeGroup" cx="188.750537" cy="108.560304" r="7"></circle>
            <path d="M152.669131,101.743145 C156.535124,101.743145 159.669131,98.6091381 159.669131,94.7431448 C159.669131,90.8771516 156.535124,87.7431448 152.669131,87.7431448 C148.803137,87.7431448 145.669131,90.8771516 145.669131,94.7431448 C145.669131,98.6091381 148.803137,101.743145 152.669131,101.743145 Z" id="Oval-4" sketch:type="MSShapeGroup"></path>
            <circle id="Oval-5" sketch:type="MSShapeGroup" cx="135" cy="89" r="7"></circle>
            <path d="M64,129 C99.346224,129 128,100.346224 128,65 C128,29.653776 99.346224,1 64,1 C28.653776,1 0,29.653776 0,65 C0,100.346224 28.653776,129 64,129 Z M63.5,112 C89.7335256,112 111,90.7335256 111,64.5 C111,38.2664744 89.7335256,17 63.5,17 C37.2664744,17 16,38.2664744 16,64.5 C16,90.7335256 37.2664744,112 63.5,112 Z" id="End-Oval" sketch:type="MSShapeGroup"></path>
        </g>
        <path d="M249.5,388 C299.48177,388 340,347.48177 340,297.5 C340,247.51823 299.48177,207 249.5,207 C199.51823,207 159,247.51823 159,297.5 C159,347.48177 199.51823,388 249.5,388 Z M249.5,365 C286.779221,365 317,334.779221 317,297.5 C317,260.220779 286.779221,230 249.5,230 C212.220779,230 182,260.220779 182,297.5 C182,334.779221 212.220779,365 249.5,365 Z" id="Center-Oval" fill="#88297C" sketch:type="MSShapeGroup"></path>
    </g>
</svg>